<svg width="24" height="24" viewBox="0 0 24 24" fill="none" xmlns="http://www.w3.org/2000/svg">
<path d="M19 12L19.75 12.0018V12H19ZM5 12L5.75 12.0109V12H5ZM17.5358 17.5248C17.8256 17.2289 17.8207 16.7541 17.5248 16.4642C17.2289 16.1744 16.7541 16.1793 16.4642 16.4752L17.5358 17.5248ZM15 5L15.75 5L15.75 4.99548L15 5ZM9 12L8.25 12L8.25 12.0007L9 12ZM14.65 14.6507C14.9431 14.3579 14.9434 13.8831 14.6507 13.59C14.3579 13.2969 13.8831 13.2966 13.59 13.5893L14.65 14.6507ZM2 2L1.46967 2.53033L21.4697 22.5303L22 22L22.5303 21.4697L2.53033 1.46967L2 2ZM18.89 13.23L19.6284 13.3613C19.7082 12.9125 19.7489 12.4576 19.75 12.0018L19 12L18.25 11.9982C18.2491 12.3672 18.2162 12.7354 18.1516 13.0987L18.89 13.23ZM19 12H19.75V10H19H18.25V12H19ZM5 10H4.25V12H5H5.75V10H5ZM5 12L4.25008 11.9891C4.22755 13.5382 4.66982 15.0584 5.51979 16.3537L6.14683 15.9422L6.77388 15.5308C6.08842 14.4862 5.73176 13.2602 5.74992 12.0109L5 12ZM6.14683 15.9422L5.51979 16.3537C6.36976 17.649 7.58842 18.6598 9.01849 19.2556L9.30695 18.5633L9.59541 17.871C8.44213 17.3905 7.45934 16.5753 6.77388 15.5308L6.14683 15.9422ZM9.30695 18.5633L9.01849 19.2556C10.4486 19.8515 12.0244 20.0051 13.5426 19.6965L13.3932 18.9616L13.2439 18.2266C12.0195 18.4754 10.7487 18.3515 9.59541 17.871L9.30695 18.5633ZM13.3932 18.9616L13.5426 19.6965C15.0608 19.388 16.4517 18.6316 17.5358 17.5248L17 17L16.4642 16.4752C15.59 17.3677 14.4683 17.9778 13.2439 18.2266L13.3932 18.9616ZM15 9.34H15.75V5H15H14.25V9.34H15ZM15 5L15.75 4.99548C15.7449 4.15344 15.4566 3.33762 14.9314 2.67938L14.3452 3.14712L13.7589 3.61486C14.074 4.0098 14.247 4.4993 14.25 5.00452L15 5ZM14.3452 3.14712L14.9314 2.67938C14.4063 2.02115 13.6749 1.55881 12.855 1.36684L12.684 2.09708L12.513 2.82733C13.005 2.94252 13.4438 3.21992 13.7589 3.61486L14.3452 3.14712ZM12.684 2.09708L12.855 1.36684C12.0351 1.17486 11.1745 1.26441 10.4117 1.62107L10.7294 2.30047L11.047 2.97987C11.5047 2.76588 12.0211 2.71214 12.513 2.82733L12.684 2.09708ZM10.7294 2.30047L10.4117 1.62107C9.64892 1.97772 9.02837 2.58073 8.64999 3.33298L9.32 3.67L9.99001 4.00702C10.217 3.55567 10.5894 3.19386 11.047 2.97987L10.7294 2.30047ZM9 9H8.25V12H9H9.75V9H9ZM9 12L8.25 12.0007C8.25065 12.7419 8.47094 13.4662 8.88304 14.0823L9.50643 13.6653L10.1298 13.2483C9.88256 12.8787 9.75039 12.4441 9.75 11.9993L9 12ZM9.50643 13.6653L8.88304 14.0823C9.29514 14.6984 9.88057 15.1785 10.5654 15.4621L10.8523 14.7691L11.1392 14.0762C10.7283 13.9061 10.3771 13.618 10.1298 13.2483L9.50643 13.6653ZM10.8523 14.7691L10.5654 15.4621C11.2502 15.7457 12.0037 15.8199 12.7307 15.6755L12.5845 14.9399L12.4384 14.2042C12.0022 14.2909 11.5501 14.2463 11.1392 14.0762L10.8523 14.7691ZM12.5845 14.9399L12.7307 15.6755C13.4577 15.5311 14.1256 15.1744 14.65 14.6507L14.12 14.12L13.59 13.5893C13.2753 13.9036 12.8746 14.1176 12.4384 14.2042L12.5845 14.9399ZM12 19H11.25V22H12H12.75V19H12Z" fill="white"/>
</svg>
